<?xml version="1.0" standalone="no"?>
<!DOCTYPE svg PUBLIC "-//W3C//DTD SVG 20010904//EN"
 "http://www.w3.org/TR/2001/REC-SVG-20010904/DTD/svg10.dtd">
<svg version="1.0" xmlns="http://www.w3.org/2000/svg"
 width="521.000000pt" height="600.000000pt" viewBox="0 0 521.000000 600.000000"
 preserveAspectRatio="xMidYMid meet">
<g transform="translate(0.000000,600.000000) scale(0.100000,-0.100000)"
fill="#000000" stroke="none">
<path d="M1124 3795 c3 -13 78 -192 165 -397 87 -205 209 -492 271 -638 61
-146 142 -335 178 -420 l67 -155 150 0 150 0 111 260 c339 791 568 1333 572
1353 l4 22 -145 0 c-104 0 -147 -4 -154 -12 -10 -13 -268 -613 -444 -1033 -78
-187 -89 -207 -97 -184 -6 14 -51 124 -102 244 -51 121 -144 344 -207 495 -64
151 -136 323 -160 383 l-46 107 -159 0 -160 0 6 -25z"/>
<path d="M2930 3774 c-12 -27 -102 -238 -201 -469 l-179 -421 0 -353 0 -353
423 4 c421 5 422 5 521 32 392 107 622 421 603 825 -18 382 -235 654 -596 748
-84 22 -125 25 -323 30 l-227 6 -21 -49z m507 -249 c227 -76 353 -264 353
-524 0 -171 -53 -304 -162 -406 -76 -72 -112 -93 -212 -124 -62 -19 -92 -21
-317 -21 l-249 0 0 550 0 550 256 0 c247 0 258 -1 331 -25z"/>
</g>
</svg>
